{
  "accessors": [
    {
      "bufferView": 0,
      "componentType": 5125,
      "count": 37440,
      "type": "SCALAR"
    },
    {
      "bufferView": 1,
      "componentType": 5126,
      "count": 10418,
      "max": [
        0.037846214877883956,
        0.027622000942928996,
        0.004399999888846654
      ],
      "min": [
        -0.03784621487788395,
        -0.027622000942928986,
        -0.004399999888846654
      ],
      "type": "VEC3"
    },
    {
      "bufferView": 2,
      "componentType": 5126,
      "count": 10418,
      "max": [
        0.9999999971990832,
        0.999999991991343,
        1.0
      ],
      "min": [
        -1.0,
        -0.9999999610289707,
        -1.0
      ],
      "type": "VEC3"
    },
    {
      "bufferView": 3,
      "componentType": 5126,
      "count": 10418,
      "max": [
        1.0,
        0.9528620666081867
      ],
      "min": [
        0.0,
        0.0
      ],
      "type": "VEC2"
    }
  ],
  "asset": {
    "generator": "Adobe Illustrator",
    "version": "2.0"
  },
  "bufferViews": [
    {
      "buffer": 0,
      "byteLength": 149760,
      "target": 34963
    },
    {
      "buffer": 0,
      "byteLength": 125016,
      "byteOffset": 149760,
      "target": 34962
    },
    {
      "buffer": 0,
      "byteLength": 125016,
      "byteOffset": 274776,
      "target": 34962
    },
    {
      "buffer": 0,
      "byteLength": 83344,
      "byteOffset": 399792,
      "target": 34962
    }
  ],
  "buffers": [
    {
      "byteLength": 483136,
      "uri": "data:application/octet-stream;base64,"
    }
  ],
  "materials": [
    {
      "doubleSided": true,
      "pbrMetallicRoughness": {
        "baseColorFactor": [
          0.81640625,
          0.82421875,
          0.828125,
          1.0
        ],
        "metallicFactor": 0.0,
        "roughnessFactor": 0.3383449614048004
      }
    }
  ],
  "meshes": [
    {
      "primitives": [
        {
          "attributes": {
            "NORMAL": 2,
            "POSITION": 1,
            "TEXCOORD_0": 3
          },
          "indices": 0,
          "material": 0,
          "mode": 4
        }
      ]
    }
  ],
  "nodes": [
    {
      "mesh": 0
    }
  ],
  "scenes": [
    {
      "nodes": [
        0
      ]
    }
  ]
}
